<?xml version="1.0" standalone="no"?><!DOCTYPE svg PUBLIC "-//W3C//DTD SVG 1.1//EN" "http://www.w3.org/Graphics/SVG/1.1/DTD/svg11.dtd"><svg t="1628183089826" class="icon" viewBox="0 0 1352 1024" version="1.1" xmlns="http://www.w3.org/2000/svg" p-id="16886" xmlns:xlink="http://www.w3.org/1999/xlink" width="42.25" height="32"><defs><style type="text/css"></style></defs><path d="M1328.0256 320c-8.82688 0-15.99488 7.168-15.99488 15.99488l0 640c0 8.82688-7.168 15.99488-15.99488 15.99488l-1248.01024 0c-8.82688 0-15.99488-7.168-15.99488-15.99488l0-640c0-8.82688-7.168-15.99488-15.99488-15.99488s-15.99488 7.168-15.99488 15.99488l0 640c0 26.46016 21.54496 48.00512 48.00512 48.00512l1248.01024 0c26.46016 0 48.00512-21.54496 48.00512-48.00512l0-640c0-8.82688-7.168-15.99488-15.99488-15.99488zM1296.01536 0l-1248.01024 0c-26.46016 0-48.00512 21.54496-48.00512 48.00512l0 192c0 8.82688 7.168 15.99488 15.99488 15.99488l1312.01024 0c8.82688 0 15.99488-7.168 15.99488-15.99488l0-192c0-26.46016-21.54496-48.00512-48.00512-48.00512zM1312.03072 224.01024l-1280 0 0-176.00512c0-8.82688 7.168-15.99488 15.99488-15.99488l1248.01024 0c8.82688 0 15.99488 7.168 15.99488 15.99488l0 176.00512zM560.0256 896c8.82688 0 15.99488-7.168 15.99488-15.99488l0-512c0-8.82688-7.168-15.99488-15.99488-15.99488l-416.01024 0c-8.82688 0-15.99488 7.168-15.99488 15.99488l0 512c0 8.82688 7.168 15.99488 15.99488 15.99488l416.01024 0zM160.03072 384l384 0 0 480.01024-384 0 0-480.01024zM720.01536 480.01024l480.01024 0c8.82688 0 15.99488-7.168 15.99488-15.99488s-7.168-15.99488-15.99488-15.99488l-480.01024 0c-8.82688 0-15.99488 7.168-15.99488 15.99488s7.168 15.99488 15.99488 15.99488zM720.01536 640l480.01024 0c8.82688 0 15.99488-7.168 15.99488-15.99488s-7.168-15.99488-15.99488-15.99488l-480.01024 0c-8.82688 0-15.99488 7.168-15.99488 15.99488s7.168 15.99488 15.99488 15.99488zM720.01536 800.01024l480.01024 0c8.82688 0 15.99488-7.168 15.99488-15.99488s-7.168-15.99488-15.99488-15.99488l-480.01024 0c-8.82688 0-15.99488 7.168-15.99488 15.99488s7.168 15.99488 15.99488 15.99488zM96.03072 128c0 17.67424 14.336 32.01024 32.01024 32.01024s32.01024-14.336 32.01024-32.01024c0-17.67424-14.336-32.01024-32.01024-32.01024s-32.01024 14.336-32.01024 32.01024zM224.03072 128c0 17.67424 14.336 32.01024 32.01024 32.01024s32.01024-14.336 32.01024-32.01024c0-17.67424-14.336-32.01024-32.01024-32.01024s-32.01024 14.336-32.01024 32.01024zM352.03072 128c0 17.67424 14.336 32.01024 32.01024 32.01024s32.01024-14.336 32.01024-32.01024c0-17.67424-14.336-32.01024-32.01024-32.01024s-32.01024 14.336-32.01024 32.01024z" p-id="16887" fill="#8a8a8a"></path></svg>