<?xml version="1.0" standalone="no"?><!DOCTYPE svg PUBLIC "-//W3C//DTD SVG 1.1//EN" "http://www.w3.org/Graphics/SVG/1.1/DTD/svg11.dtd"><svg t="1628182522761" class="icon" viewBox="0 0 1024 1024" version="1.1" xmlns="http://www.w3.org/2000/svg" p-id="3513" xmlns:xlink="http://www.w3.org/1999/xlink" width="32" height="32"><defs><style type="text/css"></style></defs><path d="M960 108.8c35.2 0 64 28.8 64 64v518.4c0 35.2-28.8 64-64 64H646.4l57.6 115.2c6.4 16 0 35.2-12.8 41.6-3.2 3.2-9.6 3.2-12.8 3.2H348.8c-19.2 0-32-12.8-32-32 0-6.4 0-9.6 3.2-12.8l57.6-115.2H64c-35.2 0-64-28.8-64-64V172.8c0-35.2 28.8-64 64-64h896zM598.4 294.4c-35.2-3.2-67.2 19.2-86.4 19.2-16 0-41.6-19.2-70.4-19.2-35.2 0-70.4 22.4-89.6 54.4-38.4 64-9.6 163.2 25.6 217.6l6.4 9.6c16 22.4 35.2 48 60.8 44.8 28.8 0 38.4-19.2 70.4-19.2 32 0 41.6 19.2 70.4 16 28.8 0 48-25.6 67.2-54.4s28.8-60.8 28.8-60.8h-3.2C665.6 496 624 473.6 624 416c0-54.4 44.8-80 48-83.2-19.2-32-57.6-38.4-73.6-38.4z m0-105.6c-22.4 0-48 16-64 32-12.8 16-25.6 41.6-22.4 67.2 25.6 0 48-12.8 64-32 12.8-16 25.6-41.6 22.4-67.2z" fill="#888888" p-id="3514"></path></svg>