<?xml version="1.0" standalone="no"?><!DOCTYPE svg PUBLIC "-//W3C//DTD SVG 1.1//EN" "http://www.w3.org/Graphics/SVG/1.1/DTD/svg11.dtd"><svg t="1628183296671" class="icon" viewBox="0 0 1024 1024" version="1.1" xmlns="http://www.w3.org/2000/svg" p-id="19494" xmlns:xlink="http://www.w3.org/1999/xlink" width="32" height="32"><defs><style type="text/css"></style></defs><path d="M320 672.016a64 64 0 0 0 64-64A63.568 63.568 0 0 0 361.92 560l72.704-145.44c4.32 0.928 8.8 1.456 13.376 1.456 13.952 0 26.752-4.576 37.264-12.144l97.056 80.88A63.408 63.408 0 0 0 576 512a64 64 0 0 0 128 0 63.728 63.728 0 0 0-19.392-45.792l66.688-116.704c5.36 1.44 10.88 2.48 16.704 2.48a64 64 0 1 0-64-64c0 17.968 7.472 34.16 19.392 45.792l-66.672 116.72A63.44 63.44 0 0 0 640 448c-13.936 0-26.736 4.576-37.248 12.16l-97.056-80.896A63.424 63.424 0 0 0 512 352.016a64 64 0 1 0-128 0c0 19.248 8.672 36.288 22.112 48.032l-72.72 145.424a64 64 0 1 0-13.392 126.56z m448-416a32 32 0 1 1 0 64 32 32 0 0 1 0-64z m-128 224a32 32 0 1 1 0 64 32 32 0 0 1 0-64z m-192-160a32 32 0 1 1 0 64 32 32 0 0 1 0-64z m-128 256a32 32 0 1 1 0 64 32 32 0 0 1 0-64z" fill="#8a8a8a" p-id="19495"></path><path d="M160 768.016v-544H128v576h768v-32H160z" fill="#8a8a8a" p-id="19496"></path></svg>