<?xml version="1.0" standalone="no"?><!DOCTYPE svg PUBLIC "-//W3C//DTD SVG 1.1//EN" "http://www.w3.org/Graphics/SVG/1.1/DTD/svg11.dtd"><svg t="1628183223569" class="icon" viewBox="0 0 1024 1024" version="1.1" xmlns="http://www.w3.org/2000/svg" p-id="18353" xmlns:xlink="http://www.w3.org/1999/xlink" width="32" height="32"><defs><style type="text/css"></style></defs><path d="M512.209065 948.945692m-56.0294 0a56.0294 56.0294 0 1 0 112.0588 0 56.0294 56.0294 0 1 0-112.0588 0Z" fill="#8a8a8a" p-id="18354"></path><path d="M883.926501 948.945692m-56.0294 0a56.0294 56.0294 0 1 0 112.058799 0 56.0294 56.0294 0 1 0-112.058799 0Z" fill="#8a8a8a" p-id="18355"></path><path d="M140.073499 948.945692m-56.029399 0a56.0294 56.0294 0 1 0 112.058799 0 56.0294 56.0294 0 1 0-112.058799 0Z" fill="#8a8a8a" p-id="18356"></path><path d="M925.94855 63.764802c0-35.122907-28.641895-63.764802-63.764802-63.764802H162.234381C127.111474 0 98.469579 28.641895 98.469579 63.764802v144.463863c0 17.352389 7.108207 33.241323 18.397714 44.739894-11.289506 11.498571-18.397713 27.387505-18.397714 44.739893v144.463863c0 17.352389 7.108207 33.241323 18.397714 44.739894-11.289506 11.498571-18.397713 27.387505-18.397714 44.739894v144.463863c0 35.122907 28.641895 63.764802 63.764802 63.764802h699.949367c35.122907 0 63.764802-28.641895 63.764802-63.764802v-144.463863c0-17.352389-7.108207-33.241323-18.397713-44.739894 11.289506-11.498571 18.397713-27.387505 18.397713-44.739894v-144.463863c0-17.352389-7.108207-33.241323-18.397713-44.739893 11.289506-11.498571 18.397713-27.387505 18.397713-44.739894V63.764802z m-789.638219 0c0-14.216415 11.498571-25.714986 25.714985-25.714986h699.949368c14.216415 0 25.924051 11.498571 25.92405 25.714986v144.463863c0 14.216415-11.498571 25.924051-25.92405 25.92405H162.234381c-14.216415 0-25.714986-11.498571-25.714985-25.92405V63.764802h-0.209065z m751.797468 233.94365v144.463863c0 14.216415-11.498571 25.714986-25.924051 25.714986H162.234381c-14.216415 0-25.714986-11.498571-25.714985-25.714986v-144.463863c0-14.216415 11.498571-25.714986 25.714985-25.714985h699.949367c14.216415 0 25.924051 11.498571 25.924051 25.714985z m0 378.407514c0 14.216415-11.498571 25.714986-25.924051 25.714985H162.234381c-14.216415 0-25.714986-11.498571-25.714985-25.714985v-144.463863c0-14.216415 11.498571-25.714986 25.714985-25.714986h699.949367c14.216415 0 25.924051 11.498571 25.924051 25.714986v144.463863z" fill="#8a8a8a" p-id="18357"></path><path d="M503.846468 154.917109h236.243365c10.453246 0 19.024908-8.571662 19.024908-19.024908s-8.571662-19.024908-19.024908-19.024908H503.846468c-10.453246 0-19.024908 8.571662-19.024908 19.024908s8.571662 19.024908 19.024908 19.024908z" fill="#8a8a8a" p-id="18358"></path><path d="M311.088608 136.101266m-22.579012 0a22.579012 22.579012 0 1 0 45.158023 0 22.579012 22.579012 0 1 0-45.158023 0Z" fill="#8a8a8a" p-id="18359"></path><path d="M503.846468 388.860759h236.243365c10.453246 0 19.024908-8.571662 19.024908-19.024908s-8.571662-19.024908-19.024908-19.024908H503.846468c-10.453246 0-19.024908 8.571662-19.024908 19.024908 0.209065 10.662311 8.571662 19.024908 19.024908 19.024908zM740.089833 584.963659H503.846468c-10.453246 0-19.024908 8.571662-19.024908 19.024908s8.571662 19.024908 19.024908 19.024908h236.243365c10.453246 0 19.024908-8.571662 19.024908-19.024908s-8.571662-19.024908-19.024908-19.024908z" fill="#8a8a8a" p-id="18360"></path><path d="M311.088608 370.044916m-22.579012 0a22.579012 22.579012 0 1 0 45.158023 0 22.579012 22.579012 0 1 0-45.158023 0Z" fill="#8a8a8a" p-id="18361"></path><path d="M311.088608 603.988567m-22.579012 0a22.579012 22.579012 0 1 0 45.158023 0 22.579012 22.579012 0 1 0-45.158023 0Z" fill="#8a8a8a" p-id="18362"></path><path d="M883.926501 873.891384c-34.704777 0-63.973867 23.833401-72.545529 56.0294H584.754594a75.305186 75.305186 0 0 0-53.520621-53.520621v-59.374438c0-10.453246-8.571662-19.024908-19.024908-19.024908s-19.024908 8.571662-19.024908 19.024908v59.374438a75.305186 75.305186 0 0 0-53.520621 53.520621H212.409963c-8.362597-32.195998-37.631686-56.0294-72.545529-56.0294-41.394855 0-75.054308 33.659453-75.054307 75.054308s33.659453 75.054308 75.054307 75.054308c34.704777 0 63.973867-23.833401 72.545529-56.0294h227.253573c8.362597 32.195998 37.631686 56.0294 72.545529 56.0294 34.913842 0 63.973867-23.833401 72.545529-56.0294h226.835443c8.362597 32.195998 37.631686 56.0294 72.545529 56.0294 41.394855 0 75.054308-33.659453 75.054307-75.054308s-33.868518-75.054308-75.263372-75.054308zM140.073499 985.950184c-20.488363 0-37.213557-16.725194-37.213556-37.213557S119.585137 911.523071 140.073499 911.523071s37.213557 16.725194 37.213557 37.213556-16.934259 37.213557-37.213557 37.213557z m372.135566 0c-20.488363 0-37.213557-16.725194-37.213557-37.213557s16.725194-37.213557 37.213557-37.213556 37.213557 16.725194 37.213556 37.213556-16.725194 37.213557-37.213556 37.213557z m371.717436 0c-20.488363 0-37.213557-16.725194-37.213557-37.213557s16.725194-37.213557 37.213557-37.213556 37.213557 16.725194 37.213556 37.213556-16.725194 37.213557-37.213556 37.213557z" fill="#8a8a8a" p-id="18363"></path></svg>