<?xml version="1.0" standalone="no"?><!DOCTYPE svg PUBLIC "-//W3C//DTD SVG 1.1//EN" "http://www.w3.org/Graphics/SVG/1.1/DTD/svg11.dtd"><svg t="1628183040628" class="icon" viewBox="0 0 1024 1024" version="1.1" xmlns="http://www.w3.org/2000/svg" p-id="15275" xmlns:xlink="http://www.w3.org/1999/xlink" width="32" height="32"><defs><style type="text/css"></style></defs><path d="M512 1024a512 512 0 1 1 512-512 512.469333 512.469333 0 0 1-512 512z m0-938.922667A426.922667 426.922667 0 1 0 939.093333 512 427.477333 427.477333 0 0 0 512 85.077333z m-58.88 522.624c-42.666667-42.666667-154.453333-308.906667-154.453333-308.906666s266.24 111.786667 308.906666 154.453333a109.226667 109.226667 0 0 1-154.453333 154.453333z m89.6-123.050666A781.909333 781.909333 0 0 0 426.666667 426.666667a752.810667 752.810667 0 0 0 58.026666 115.84 41.002667 41.002667 0 1 0 58.026667-57.856z" p-id="15276" fill="#8a8a8a"></path></svg>