<?xml version="1.0" standalone="no"?><!DOCTYPE svg PUBLIC "-//W3C//DTD SVG 1.1//EN" "http://www.w3.org/Graphics/SVG/1.1/DTD/svg11.dtd"><svg t="1628182974506" class="icon" viewBox="0 0 1024 1024" version="1.1" xmlns="http://www.w3.org/2000/svg" p-id="11721" xmlns:xlink="http://www.w3.org/1999/xlink" width="32" height="32"><defs><style type="text/css"></style></defs><path d="M1004.12788 321.092L762.77088 79.735a68.267 68.267 0 0 0-96.546 0l-30.293 30.294a68.284 68.284 0 0 1-48.265 20.002H436.47388a68.181 68.181 0 0 1-48.265-20.002l-30.293-30.294a68.267 68.267 0 0 0-96.546 0L19.99588 321.092a68.267 68.267 0 0 0 0 96.546l96.546 96.547a67.84 67.84 0 0 0 66.645 17.271c10.804-3.072 21.675 4.181 21.675 15.411V896c0 37.547 30.72 68.267 68.267 68.267H750.99388c37.547 0 68.267-30.72 68.267-68.267V546.867c0-11.23 10.872-18.483 21.675-15.411a67.84 67.84 0 0 0 66.645-17.271l96.546-96.547a68.267 68.267 0 0 0 0-96.546z" p-id="11722" fill="#8a8a8a"></path></svg>